<svg width="19" height="19" viewBox="0 0 19 19" fill="none" xmlns="http://www.w3.org/2000/svg">
<path d="M17.9243 15.7643L14.4196 12.2596C14.2614 12.1014 14.0469 12.0135 13.822 12.0135H13.249C14.2192 10.7726 14.7957 9.21182 14.7957 7.51393C14.7957 3.47488 11.523 0.202148 7.4839 0.202148C3.44485 0.202148 0.172119 3.47488 0.172119 7.51393C0.172119 11.553 3.44485 14.8257 7.4839 14.8257C9.18179 14.8257 10.7426 14.2492 11.9835 13.279V13.852C11.9835 14.077 12.0713 14.2914 12.2295 14.4496L15.7343 17.9543C16.0647 18.2848 16.599 18.2848 16.926 17.9543L17.9208 16.9595C18.2512 16.6291 18.2512 16.0947 17.9243 15.7643ZM7.4839 12.0135C4.9986 12.0135 2.98434 10.0028 2.98434 7.51393C2.98434 5.02863 4.99509 3.01437 7.4839 3.01437C9.96921 3.01437 11.9835 5.02512 11.9835 7.51393C11.9835 9.99924 9.97272 12.0135 7.4839 12.0135Z" fill="#757575"/>
</svg>
